<svg width="512" height="512" viewBox="0 0 512 512" fill="none" xmlns="http://www.w3.org/2000/svg">
  <rect width="512" height="512" rx="120" fill="#111827"/>
  <circle cx="256" cy="256" r="170" fill="#19313B"/>
  <path d="M164 152C164 139.297 174.297 129 187 129H228C240.703 129 251 139.297 251 152V360C251 372.703 240.703 383 228 383H187C174.297 383 164 372.703 164 360V152Z" fill="#E5E7EB"/>
  <path d="M272 152C272 139.297 282.297 129 295 129H326C338.703 129 349 139.297 349 152V360C349 372.703 338.703 383 326 383H295C282.297 383 272 372.703 272 360V152Z" fill="#7DD3FC"/>
  <path d="M156 188C156 175.297 166.297 165 179 165H333C345.703 165 356 175.297 356 188V214C356 226.703 345.703 237 333 237H179C166.297 237 156 226.703 156 214V188Z" fill="#FBBF24"/>
  <path d="M156 274C156 261.297 166.297 251 179 251H333C345.703 251 356 261.297 356 274V300C356 312.703 345.703 323 333 323H179C166.297 323 156 312.703 156 300V274Z" fill="#34D399"/>
  <path d="M197 404C197 393.507 205.507 385 216 385H296C306.493 385 315 393.507 315 404V411C315 421.493 306.493 430 296 430H216C205.507 430 197 421.493 197 411V404Z" fill="#E5E7EB"/>
</svg>
